# xmcd CD database file
#
# Track frame offsets:
#	150
#	36332
#	83530
#	162477
#	199050
#	246617
#	258447
#	280904
#	299460
#
# Disc length: 4216 seconds
#
# Revision: 0
# Processed by: cddbd v1.4PL0 Copyright (c) Steve Scherf et al.
# Submitted via: CDex 1.51
#
DISCID=87107609
DTITLE=Offering - I&II
DYEAR=2003
DGENRE=Jazz
TTITLE0=Offering (Part 1)
TTITLE1=Earth
TTITLE2=Joïa
TTITLE3=C'est Pour Nous
TTITLE4=Love in the Darkness
TTITLE5=Tilim M'dhom
TTITLE6=Mazur Kujiawiak Oberek
TTITLE7=Solitude
TTITLE8=Ügüma Mà Mëlimëh Gïngeh
EXTD=YEAR: 2003
EXTT0=
EXTT1=
EXTT2=
EXTT3=
EXTT4=
EXTT5=
EXTT6=
EXTT7=
EXTT8=
PLAYORDER=
